# xmcd
#
# Track frame offsets:
#	150
#	14673
#	24321
#	39669
#	54042
#	66165
#	78138
#	92886
#	103584
#	122682
#	137730
#	149478
#	164526
#	179574
#	190872
#
# Disc length: 2694 seconds
#
# Revision: 0
# Processed by: cddbd v1.5.2PL0 Copyright (c) Steve Scherf et al.
# Submitted via: audiograbber 1.83.01
#
DISCID=cc0a840f
DTITLE=Various Artist - On The Road - Especially For Truckers 8
DYEAR=2007
DGENRE=Country
TTITLE0=Rocking Jojo And His Red Angels - Route 66
TTITLE1=Bobby Prins - Jealous Fool
TTITLE2=Hans Van Aalst - Achy Breaky Heart
TTITLE3=Jack Jersey - Suspicious Minds
TTITLE4=Dixie Aces - One Night
TTITLE5=Highway - Tennessee Waltz
TTITLE6=Mike Melvin - Follow You To Paradise
TTITLE7=Roland Konings Band - The Girl Is Too Young
TTITLE8=Danny Fabry - Fats Domino Medley
TTITLE9=Jack Jersey - Papa Was A Poor Man
TTITLE10=Burt Blanca - Shakin 'Overdose
TTITLE11=Hans Van Aalst - Set Me Free
TTITLE12=Dixie Aces - Thank God For The Radio
TTITLE13=Dave Berry - This Strange Effect
TTITLE14=The Black Devils - Queen Of The Hop
EXTD=
EXTT0=
EXTT1=
EXTT2=
EXTT3=
EXTT4=
EXTT5=
EXTT6=
EXTT7=
EXTT8=
EXTT9=
EXTT10=
EXTT11=
EXTT12=
EXTT13=
EXTT14=
PLAYORDER=
